<?xml version="1.0" standalone="no"?>
<!DOCTYPE svg PUBLIC "-//W3C//DTD SVG 20010904//EN"
 "http://www.w3.org/TR/2001/REC-SVG-20010904/DTD/svg10.dtd">
<svg version="1.0" xmlns="http://www.w3.org/2000/svg"
 width="378.000000pt" height="378.000000pt" viewBox="0 0 378.000000 378.000000"
 preserveAspectRatio="xMidYMid meet">

<g transform="translate(0.000000,378.000000) scale(0.100000,-0.100000)"
fill="#000000" stroke="none">
<path d="M0 1890 l0 -1890 1890 0 1890 0 0 1890 0 1890 -1890 0 -1890 0 0
-1890z m2322 1340 c404 -69 750 -313 956 -674 124 -216 180 -456 169 -726 -9
-214 -46 -358 -139 -545 -73 -145 -139 -237 -258 -355 -158 -158 -325 -262
-527 -329 -202 -67 -154 -64 -1075 -68 l-838 -4 0 1361 0 1360 799 0 c748 0
806 -1 913 -20z"/>
<path d="M1755 3111 c-767 -137 -1223 -953 -935 -1674 146 -364 442 -631 820
-740 81 -24 314 -56 325 -45 3 3 4 238 3 523 l-3 519 -258 -322 c-141 -177
-260 -322 -263 -322 -11 0 -174 133 -174 142 0 4 102 135 226 291 l226 282
-153 5 -154 5 -3 118 -3 117 156 0 c85 0 155 2 155 4 0 3 -101 131 -225 286
-124 154 -225 285 -225 289 0 10 160 141 172 141 4 0 116 -136 249 -302 133
-167 250 -312 260 -323 19 -19 19 -8 19 503 l0 522 -57 -1 c-32 0 -103 -9
-158 -18z"/>
<path d="M2233 2399 l-263 -330 0 -178 0 -179 265 -331 265 -331 85 67 c47 37
85 71 85 75 0 5 -104 138 -230 296 l-230 287 160 3 160 2 0 110 0 110 -155 0
c-99 0 -155 4 -155 10 0 6 99 134 220 286 122 151 223 280 226 287 3 8 -31 41
-80 80 -46 37 -86 67 -88 66 -1 0 -121 -149 -265 -330z"/>
</g>
</svg>
