<?xml version="1.0" standalone="no"?>
<!DOCTYPE svg PUBLIC "-//W3C//DTD SVG 1.1//EN" "http://www.w3.org/Graphics/SVG/1.1/DTD/svg11.dtd">
<svg xmlns="http://www.w3.org/2000/svg" id="Layer_1" viewBox="0 0 313.15 300" width="313.1499938964844" height="300"><defs><style>.cls-1{fill:#fff;}</style></defs><path class="cls-1" d="m300,88.48C276.51,36.32,224.06,0,163.15,0H0v300h163.15c60.91,0,113.36-36.32,136.85-88.48,8.45-18.78,13.15-39.59,13.15-61.52s-4.7-42.74-13.15-61.52Zm-88.29,48.84v25.37h-35.29l48.85,61.06,2.82,3.53-3.53,2.82-12.76,10.21-3.53,2.82-2.82-3.53-55.43-69.28v116.65c-75.65,0-136.97-61.32-136.97-136.97S74.36,13.03,150.01,13.03v116.66l55.43-69.28,2.82-3.54,3.53,2.83,12.76,10.2,3.53,2.83-2.82,3.53-48.85,61.06h35.29Z"/><polygon class="cls-1" points="150.01 129.68 150.01 170.33 94.58 239.61 91.75 243.14 88.23 240.31 75.47 230.1 71.94 227.28 74.76 223.75 123.61 162.69 88.31 162.69 88.31 137.32 123.61 137.32 74.76 76.26 71.94 72.73 75.47 69.9 88.23 59.7 91.75 56.86 94.58 60.4 150.01 129.68"/></svg>