<?xml version="1.0" standalone="no"?>
<!DOCTYPE svg PUBLIC "-//W3C//DTD SVG 1.1//EN" "http://www.w3.org/Graphics/SVG/1.1/DTD/svg11.dtd">
<svg xmlns="http://www.w3.org/2000/svg" xmlns:xlink="http://www.w3.org/1999/xlink" version="1.1" id="Layer_1" x="0px" y="0px" viewBox="0 0 720 232.5" style="enable-background:new 0 0 720 232.5;" xml:space="preserve" width="720" height="232.5">
<g>
	<g>
		<path d="M232.5,68.6C214.3,28.2,173.7,0,126.5,0H0v232.5h126.5c47.2,0,87.9-28.2,106.1-68.6c6.5-14.6,10.2-30.7,10.2-47.7    S239.1,83.1,232.5,68.6L232.5,68.6z M164.1,106.4v19.7h-27.4l37.9,47.3l2.2,2.7l-2.7,2.2l-9.9,7.9l-2.7,2.2l-2.2-2.7l-43-53.7    v90.4c-58.6,0-106.2-47.5-106.2-106.2S57.6,10.1,116.3,10.1v90.4l43-53.7l2.2-2.7l2.7,2.2l9.9,7.9l2.7,2.2l-2.2,2.7l-37.9,47.3    H164.1L164.1,106.4z"/>
		<polygon points="116.3,100.5 116.3,132 73.3,185.7 71.1,188.5 68.4,186.3 58.5,178.4 55.8,176.2 57.9,173.4 95.8,126.1     68.5,126.1 68.5,106.4 95.8,106.4 57.9,59.1 55.8,56.4 58.5,54.2 68.4,46.3 71.1,44.1 73.3,46.8   "/>
	</g>
	<g>
		<g>
			<path d="M304.7,16.7h34.1c29.4,0,44.5,16.9,44.5,47.1s-15.1,47.1-44.5,47.1h-34.1V16.7z M337.1,95.3c20.6,0,28.2-9.7,28.2-31.6     s-7.7-31.6-28.2-31.6h-14.8v63.2L337.1,95.3L337.1,95.3z"/>
			<path d="M391.1,75.7c0-25.8,16-36.2,34.3-36.2s32.8,9.9,32.8,35.5c0,2.4-0.1,3.8-0.4,5.2h-50.4c1.1,13,7.7,18.7,18.7,18.7     c8.7,0,13.8-3.4,15.9-10.1h15.3c-3.8,15.9-16,23.3-31.6,23.3C407.6,112.1,391.1,101.8,391.1,75.7L391.1,75.7z M442,69.8     c-0.4-9.8-5.5-17.1-16.8-17.1c-10.1,0-16.4,5.6-17.6,17.1H442L442,69.8z"/>
			<path d="M501.4,53.8c-9.4,0-16.3,5.6-16.3,17.1v39.9h-17.2V40.9h17.2v14.4h0.5c1.3-6,8.1-15.7,22.9-15.7     c13.7,0,24.3,8.3,24.3,27.3v44h-17.2V70.8C515.6,59.4,510.7,53.8,501.4,53.8z"/>
			<path d="M542.7,92.5c0-14.5,11.4-18.7,24.2-20.4l13-1.7c6.9-0.9,8.9-2.2,8.9-5.8V63c0-8.5-5.1-11-12.6-11     c-7.5,0-13.6,2.6-13.6,10.2v1.5h-16.1v-3.1c0-13.6,9.3-21.1,30.1-21.1c20.8,0,29.2,7.4,29.2,22.9v48.4h-16.5V98.3h-0.7     c-1.5,3.9-7.8,13.8-23.4,13.8C553.3,112.1,542.7,106.5,542.7,92.5L542.7,92.5z M570.8,99.6c11,0,18-7.4,18-13v-8.9     c-0.9,1.6-4.3,2.4-8.2,3l-11.2,1.7c-7.3,1.1-9.5,4.4-9.5,8.6C559.9,96.4,563.5,99.6,570.8,99.6L570.8,99.6z"/>
			<path d="M619.4,40.9h17.2v16.7h0.4c2.3-9.4,8.9-17.5,20.7-17.5c1.6,0,3.5,0.1,5.4,0.7v14.5c-2-0.3-3.6-0.4-5.4-0.4     c-11.6,0-21.1,7-21.1,23.4v32.5h-17.2L619.4,40.9L619.4,40.9z"/>
			<path d="M680,11.7c5.1,0,9.7,4.2,9.7,9.7s-4.6,9.7-9.7,9.7s-9.8-4.2-9.8-9.7S674.8,11.7,680,11.7z M671.4,40.9h17.2v69.9h-17.2     V40.9z"/>
			<path d="M710.3,11.7c5.1,0,9.7,4.2,9.7,9.7s-4.6,9.7-9.7,9.7s-9.8-4.2-9.8-9.7S705.1,11.7,710.3,11.7z M701.7,40.9h17.2v69.9     h-17.2V40.9z"/>
		</g>
		<g>
			<path d="M305.9,127h17.6v78.6h44.6v15.5h-62.2L305.9,127L305.9,127z"/>
			<path d="M373.2,202.8c0-14.5,11.4-18.7,24.2-20.4l13-1.7c6.9-0.9,8.9-2.2,8.9-5.8v-1.5c0-8.5-5.1-11-12.6-11s-13.6,2.6-13.6,10.2     v1.5h-16.1v-3.1c0-13.6,9.3-21.1,30.1-21.1c20.8,0,29.2,7.4,29.2,22.9v48.4h-16.5v-12.5H419c-1.5,3.9-7.8,13.8-23.4,13.8     C383.8,222.4,373.2,216.8,373.2,202.8L373.2,202.8z M401.3,209.9c11,0,18-7.4,18-13V188c-0.9,1.6-4.3,2.4-8.2,3l-11.2,1.7     c-7.3,1.1-9.5,4.4-9.5,8.6C390.4,206.7,394,209.9,401.3,209.9L401.3,209.9z"/>
			<path d="M466.5,211v10.1h-17.2V127h17.2v34.3c3.4-6.6,11.4-11.4,21.6-11.4c15.1,0,30.8,10.8,30.8,36.3s-15.7,36.3-30.8,36.3     C477.9,222.4,469.8,217.6,466.5,211L466.5,211z M484.1,208c9.7,0,18.7-6.9,18.7-21.9c0-15.1-9-21.9-18.7-21.9     s-18.4,6.9-18.4,21.9C465.6,201.2,474.7,208,484.1,208z"/>
			<path d="M524.7,199H540c0.9,7.4,6.6,10.4,14.7,10.4c7.4,0,12.6-2.6,12.6-8.5c0-4.3-2.8-6.5-8.2-7.5l-12.9-2.8     c-14.1-3.2-19.6-10.6-19.6-20c0-13.2,11.3-20.7,28.1-20.7c17.7,0,27.8,8.5,28.1,23.3h-14.2c-1.1-7.7-6.2-10.2-13.7-10.2     c-7.5,0-11.6,2.6-11.6,7.4c0,4,2.8,6.6,8.5,7.7l13.3,3c11,2.6,20,7.4,20,19.6c0,15.5-14.2,21.9-30.7,21.9     C536.5,222.4,524.8,214.8,524.7,199L524.7,199z"/>
		</g>
	</g>
</g>
</svg>